<svg viewBox="0 0 1024 700" xmlns="http://www.w3.org/2000/svg">
  <g transform="translate(32.07 122.00) scale(1.28312)"><path d="M63.8 0.0 L54.5 0.0 L45.9 -22.1 L17.6 -22.1 L9.1 0.0 L0.0 0.0 L27.9 -71.7 L36.0 -71.7 L63.8 0.0 Z M43.2 -30.1 L35.2 -51.7 Q34.9 -52.5 34.2 -54.6 Q33.5 -56.7 32.9 -59.0 Q32.2 -61.2 31.8 -62.4 L31.8 -62.4 Q31.3 -60.4 30.8 -58.4 Q30.2 -56.3 29.7 -54.6 Q29.1 -52.9 28.7 -51.7 L28.7 -51.7 L20.6 -30.1 L43.2 -30.1 Z" fill="#FFFFFF" fill-rule="evenodd" stroke="#111111" stroke-width="4.5" stroke-linejoin="round" stroke-linecap="round" paint-order="stroke fill markers"/></g>
  <g transform="translate(174.35 122.00) scale(1.28852)"><path d="M9.7 -71.4 L30.1 -71.4 Q43.5 -71.4 50.4 -67.5 Q57.2 -63.5 57.2 -53.7 L57.2 -53.7 Q57.2 -49.5 55.7 -46.3 Q54.1 -43.0 51.1 -40.9 Q48.0 -38.7 43.6 -37.9 L43.6 -37.9 L43.6 -37.4 Q48.1 -36.7 51.8 -34.8 Q55.4 -32.9 57.5 -29.4 Q59.6 -25.9 59.6 -20.3 L59.6 -20.3 Q59.6 -13.8 56.6 -9.3 Q53.6 -4.7 48.1 -2.4 Q42.5 0.0 34.8 0.0 L34.8 0.0 L9.7 0.0 L9.7 -71.4 Z M18.7 -41.0 L31.9 -41.0 Q41.1 -41.0 44.5 -44.0 Q47.9 -46.9 47.9 -52.7 L47.9 -52.7 Q47.9 -58.6 43.8 -61.2 Q39.6 -63.7 30.5 -63.7 L30.5 -63.7 L18.7 -63.7 L18.7 -41.0 Z M32.4 -33.5 L18.7 -33.5 L18.7 -7.6 L33.1 -7.6 Q42.6 -7.6 46.3 -11.3 Q50.0 -15.0 50.0 -21.0 L50.0 -21.0 Q50.0 -24.8 48.4 -27.6 Q46.7 -30.4 42.9 -32.0 Q39.0 -33.5 32.4 -33.5 L32.4 -33.5 Z" fill="#FFFFFF" fill-rule="evenodd" stroke="#111111" stroke-width="4.5" stroke-linejoin="round" stroke-linecap="round" paint-order="stroke fill markers"/></g>
  <g transform="translate(323.51 120.75) scale(1.25341)"><path d="M40.3 -64.5 L40.3 -64.5 Q34.6 -64.5 30.0 -62.6 Q25.4 -60.6 22.2 -56.9 Q19.0 -53.1 17.3 -47.8 Q15.6 -42.4 15.6 -35.7 L15.6 -35.7 Q15.6 -26.9 18.4 -20.4 Q21.1 -13.9 26.6 -10.4 Q32.0 -6.9 40.2 -6.9 L40.2 -6.9 Q44.9 -6.9 49.1 -7.7 Q53.3 -8.5 57.3 -9.7 L57.3 -9.7 L57.3 -1.9 Q53.3 -0.4 49.1 0.3 Q44.8 1.0 38.9 1.0 L38.9 1.0 Q28.0 1.0 20.7 -3.5 Q13.4 -8.0 9.8 -16.3 Q6.1 -24.6 6.1 -35.8 L6.1 -35.8 Q6.1 -43.9 8.3 -50.6 Q10.6 -57.3 15.0 -62.2 Q19.3 -67.1 25.7 -69.8 Q32.1 -72.4 40.4 -72.4 L40.4 -72.4 Q45.9 -72.4 51.0 -71.3 Q56.1 -70.2 60.1 -68.2 L60.1 -68.2 L56.5 -60.6 Q53.2 -62.1 49.2 -63.3 Q45.1 -64.5 40.3 -64.5 Z" fill="#FFFFFF" fill-rule="evenodd" stroke="#111111" stroke-width="4.5" stroke-linejoin="round" stroke-linecap="round" paint-order="stroke fill markers"/></g>
  <g transform="translate(479.41 99.10) scale(0.95436)"><path d="M40.3 -64.5 L40.3 -64.5 Q34.6 -64.5 30.0 -62.6 Q25.4 -60.6 22.2 -56.9 Q19.0 -53.1 17.3 -47.8 Q15.6 -42.4 15.6 -35.7 L15.6 -35.7 Q15.6 -26.9 18.4 -20.4 Q21.1 -13.9 26.6 -10.4 Q32.0 -6.9 40.2 -6.9 L40.2 -6.9 Q44.9 -6.9 49.1 -7.7 Q53.3 -8.5 57.3 -9.7 L57.3 -9.7 L57.3 -1.9 Q53.3 -0.4 49.1 0.3 Q44.8 1.0 38.9 1.0 L38.9 1.0 Q28.0 1.0 20.7 -3.5 Q13.4 -8.0 9.8 -16.3 Q6.1 -24.6 6.1 -35.8 L6.1 -35.8 Q6.1 -43.9 8.3 -50.6 Q10.6 -57.3 15.0 -62.2 Q19.3 -67.1 25.7 -69.8 Q32.1 -72.4 40.4 -72.4 L40.4 -72.4 Q45.9 -72.4 51.0 -71.3 Q56.1 -70.2 60.1 -68.2 L60.1 -68.2 L56.5 -60.6 Q53.2 -62.1 49.2 -63.3 Q45.1 -64.5 40.3 -64.5 Z M47.3 13.9 L47.3 13.9 Q47.3 18.7 43.6 21.4 Q39.9 24.0 32.5 24.0 L32.5 24.0 Q31.0 24.0 29.7 23.9 Q28.3 23.7 27.5 23.5 L27.5 23.5 L27.5 18.0 Q28.4 18.2 29.9 18.4 Q31.4 18.5 32.8 18.5 L32.8 18.5 Q36.4 18.5 38.3 17.6 Q40.2 16.6 40.2 14.1 L40.2 14.1 Q40.2 11.5 37.6 10.3 Q34.9 9.1 31.1 8.6 L31.1 8.6 L35.4 0.0 L41.2 0.0 L38.6 5.3 Q41.0 5.8 43.0 6.9 Q45.0 7.9 46.2 9.6 Q47.3 11.3 47.3 13.9 Z" fill="#FFFFFF" fill-rule="evenodd" stroke="#111111" stroke-width="4.5" stroke-linejoin="round" stroke-linecap="round" paint-order="stroke fill markers"/></g>
  <g transform="translate(607.65 122.00) scale(1.28852)"><path d="M66.9 -36.4 L66.9 -36.4 Q66.9 -24.4 62.5 -16.3 Q58.0 -8.2 49.7 -4.1 Q41.4 0.0 29.6 0.0 L29.6 0.0 L9.7 0.0 L9.7 -71.4 L31.7 -71.4 Q42.5 -71.4 50.4 -67.4 Q58.3 -63.4 62.6 -55.7 Q66.9 -47.9 66.9 -36.4 Z M57.4 -36.1 L57.4 -36.1 Q57.4 -45.6 54.3 -51.7 Q51.1 -57.8 45.1 -60.8 Q39.0 -63.7 30.4 -63.7 L30.4 -63.7 L18.7 -63.7 L18.7 -7.7 L28.4 -7.7 Q42.9 -7.7 50.2 -14.9 Q57.4 -22.0 57.4 -36.1 Z" fill="#FFFFFF" fill-rule="evenodd" stroke="#111111" stroke-width="4.5" stroke-linejoin="round" stroke-linecap="round" paint-order="stroke fill markers"/></g>
  <g transform="translate(764.80 122.00) scale(1.28852)"><path d="M49.6 -7.9 L49.6 0.0 L9.7 0.0 L9.7 -71.4 L49.6 -71.4 L49.6 -63.5 L18.7 -63.5 L18.7 -41.2 L47.8 -41.2 L47.8 -33.4 L18.7 -33.4 L18.7 -7.9 L49.6 -7.9 Z" fill="#FFFFFF" fill-rule="evenodd" stroke="#111111" stroke-width="4.5" stroke-linejoin="round" stroke-linecap="round" paint-order="stroke fill markers"/></g>
  <g transform="translate(910.80 122.00) scale(1.28852)"><path d="M18.7 -30.3 L18.7 0.0 L9.7 0.0 L9.7 -71.4 L49.6 -71.4 L49.6 -63.5 L18.7 -63.5 L18.7 -38.2 L47.7 -38.2 L47.7 -30.3 L18.7 -30.3 Z" fill="#FFFFFF" fill-rule="evenodd" stroke="#111111" stroke-width="4.5" stroke-linejoin="round" stroke-linecap="round" paint-order="stroke fill markers"/></g>
  <g transform="translate(28.19 260.75) scale(1.25341)"><path d="M40.7 -29.7 L40.7 -37.7 L65.4 -37.7 L65.4 -2.7 Q59.6 -0.8 53.7 0.1 Q47.8 1.0 40.3 1.0 L40.3 1.0 Q29.2 1.0 21.6 -3.5 Q14.0 -7.9 10.1 -16.2 Q6.1 -24.4 6.1 -35.7 L6.1 -35.7 Q6.1 -46.9 10.5 -55.1 Q14.9 -63.3 23.2 -67.9 Q31.4 -72.4 43.1 -72.4 L43.1 -72.4 Q49.1 -72.4 54.5 -71.3 Q59.8 -70.2 64.4 -68.2 L64.4 -68.2 L61.0 -60.4 Q57.2 -62.1 52.5 -63.3 Q47.7 -64.5 42.6 -64.5 L42.6 -64.5 Q34.1 -64.5 28.0 -61.0 Q21.9 -57.5 18.7 -51.1 Q15.5 -44.6 15.5 -35.7 L15.5 -35.7 Q15.5 -27.2 18.3 -20.7 Q21.0 -14.1 26.9 -10.5 Q32.8 -6.8 42.4 -6.8 L42.4 -6.8 Q47.1 -6.8 50.4 -7.3 Q53.7 -7.8 56.4 -8.5 L56.4 -8.5 L56.4 -29.7 L40.7 -29.7 Z" fill="#FFFFFF" fill-rule="evenodd" stroke="#111111" stroke-width="4.5" stroke-linejoin="round" stroke-linecap="round" paint-order="stroke fill markers"/></g>
  <g transform="translate(183.56 261.01) scale(0.99138)"><path d="M40.7 -29.7 L40.7 -37.7 L65.4 -37.7 L65.4 -2.7 Q59.6 -0.8 53.7 0.1 Q47.8 1.0 40.3 1.0 L40.3 1.0 Q29.2 1.0 21.6 -3.5 Q14.0 -7.9 10.1 -16.2 Q6.1 -24.4 6.1 -35.7 L6.1 -35.7 Q6.1 -46.9 10.5 -55.1 Q14.9 -63.3 23.2 -67.9 Q31.4 -72.4 43.1 -72.4 L43.1 -72.4 Q49.1 -72.4 54.5 -71.3 Q59.8 -70.2 64.4 -68.2 L64.4 -68.2 L61.0 -60.4 Q57.2 -62.1 52.5 -63.3 Q47.7 -64.5 42.6 -64.5 L42.6 -64.5 Q34.1 -64.5 28.0 -61.0 Q21.9 -57.5 18.7 -51.1 Q15.5 -44.6 15.5 -35.7 L15.5 -35.7 Q15.5 -27.2 18.3 -20.7 Q21.0 -14.1 26.9 -10.5 Q32.8 -6.8 42.4 -6.8 L42.4 -6.8 Q47.1 -6.8 50.4 -7.3 Q53.7 -7.8 56.4 -8.5 L56.4 -8.5 L56.4 -29.7 L40.7 -29.7 Z M50.5 -91.8 L56.0 -91.8 Q55.7 -87.8 53.8 -84.8 Q51.8 -81.8 48.4 -80.1 Q45.0 -78.4 40.2 -78.4 L40.2 -78.4 Q32.8 -78.4 29.1 -82.1 Q25.3 -85.7 24.9 -91.8 L24.9 -91.8 L30.3 -91.8 Q30.6 -89.1 31.9 -87.8 Q33.1 -86.4 35.3 -86.0 Q37.4 -85.5 40.4 -85.5 L40.4 -85.5 Q43.0 -85.5 45.2 -86.0 Q47.3 -86.5 48.8 -87.9 Q50.2 -89.2 50.5 -91.8 L50.5 -91.8 Z" fill="#FFFFFF" fill-rule="evenodd" stroke="#111111" stroke-width="4.5" stroke-linejoin="round" stroke-linecap="round" paint-order="stroke fill markers"/></g>
  <g transform="translate(317.32 262.00) scale(1.28852)"><path d="M64.3 -71.4 L64.3 0.0 L55.3 0.0 L55.3 -33.3 L18.7 -33.3 L18.7 0.0 L9.7 0.0 L9.7 -71.4 L18.7 -71.4 L18.7 -41.2 L55.3 -41.2 L55.3 -71.4 L64.3 -71.4 Z" fill="#FFFFFF" fill-rule="evenodd" stroke="#111111" stroke-width="4.5" stroke-linejoin="round" stroke-linecap="round" paint-order="stroke fill markers"/></g>
  <g transform="translate(489.22 262.00) scale(1.28852)"><path d="M29.8 -5.2 L29.8 0.0 L4.0 0.0 L4.0 -5.2 L12.4 -7.1 L12.4 -64.2 L4.0 -66.2 L4.0 -71.4 L29.8 -71.4 L29.8 -66.2 L21.4 -64.2 L21.4 -7.1 L29.8 -5.2 Z" fill="#FFFFFF" fill-rule="evenodd" stroke="#111111" stroke-width="4.5" stroke-linejoin="round" stroke-linecap="round" paint-order="stroke fill markers"/></g>
  <g transform="translate(640.01 262.00) scale(1.00546)"><path d="M29.8 -5.2 L29.8 0.0 L4.0 0.0 L4.0 -5.2 L12.4 -7.1 L12.4 -64.2 L4.0 -66.2 L4.0 -71.4 L29.8 -71.4 L29.8 -66.2 L21.4 -64.2 L21.4 -7.1 L29.8 -5.2 Z M17.1 -91.5 L17.1 -91.5 Q19.1 -91.5 20.7 -90.2 Q22.2 -88.8 22.2 -85.9 L22.2 -85.9 Q22.2 -83.1 20.7 -81.7 Q19.1 -80.3 17.1 -80.3 L17.1 -80.3 Q14.9 -80.3 13.4 -81.7 Q11.9 -83.1 11.9 -85.9 L11.9 -85.9 Q11.9 -88.8 13.4 -90.2 Q14.9 -91.5 17.1 -91.5 Z" fill="#FFFFFF" fill-rule="evenodd" stroke="#111111" stroke-width="4.5" stroke-linejoin="round" stroke-linecap="round" paint-order="stroke fill markers"/></g>
  <g transform="translate(797.71 242.66) scale(1.01770)"><path d="M-0.4 19.0 L-0.4 19.0 Q-2.8 19.0 -4.6 18.7 Q-6.4 18.3 -7.8 17.7 L-7.8 17.7 L-7.8 10.1 Q-6.2 10.5 -4.4 10.8 Q-2.6 11.1 -0.6 11.1 L-0.6 11.1 Q1.9 11.1 4.2 10.1 Q6.4 9.1 7.8 6.6 Q9.2 4.1 9.2 -0.4 L9.2 -0.4 L9.2 -71.4 L18.2 -71.4 L18.2 -1.1 Q18.2 5.8 15.9 10.3 Q13.6 14.7 9.4 16.9 Q5.2 19.0 -0.4 19.0 Z" fill="#FFFFFF" fill-rule="evenodd" stroke="#111111" stroke-width="4.5" stroke-linejoin="round" stroke-linecap="round" paint-order="stroke fill markers"/></g>
  <g transform="translate(902.87 262.00) scale(1.28852)"><path d="M32.5 -40.3 L61.9 0.0 L51.3 0.0 L26.0 -34.1 L18.7 -27.7 L18.7 0.0 L9.7 0.0 L9.7 -71.4 L18.7 -71.4 L18.7 -36.2 Q21.7 -39.6 24.8 -43.0 Q27.9 -46.4 31.0 -49.8 L31.0 -49.8 L50.3 -71.4 L60.8 -71.4 L32.5 -40.3 Z" fill="#FFFFFF" fill-rule="evenodd" stroke="#111111" stroke-width="4.5" stroke-linejoin="round" stroke-linecap="round" paint-order="stroke fill markers"/></g>
  <g transform="translate(34.60 402.00) scale(1.28852)"><path d="M49.9 0.0 L9.7 0.0 L9.7 -71.4 L18.7 -71.4 L18.7 -8.0 L49.9 -8.0 L49.9 0.0 Z" fill="#FFFFFF" fill-rule="evenodd" stroke="#111111" stroke-width="4.5" stroke-linejoin="round" stroke-linecap="round" paint-order="stroke fill markers"/></g>
  <g transform="translate(160.57 402.00) scale(1.28852)"><path d="M48.6 0.0 L41.2 0.0 L17.7 -62.6 L17.3 -62.6 Q17.5 -60.6 17.7 -57.5 Q17.8 -54.4 17.9 -50.8 Q18.0 -47.1 18.0 -43.3 L18.0 -43.3 L18.0 0.0 L9.7 0.0 L9.7 -71.4 L23.0 -71.4 L45.0 -12.9 L45.4 -12.9 L67.8 -71.4 L81.0 -71.4 L81.0 0.0 L72.1 0.0 L72.1 -43.9 Q72.1 -47.4 72.2 -50.9 Q72.3 -54.3 72.5 -57.4 Q72.7 -60.4 72.8 -62.5 L72.8 -62.5 L72.4 -62.5 L48.6 0.0 Z" fill="#FFFFFF" fill-rule="evenodd" stroke="#111111" stroke-width="4.5" stroke-linejoin="round" stroke-linecap="round" paint-order="stroke fill markers"/></g>
  <g transform="translate(316.04 402.00) scale(1.28852)"><path d="M66.3 -71.4 L66.3 0.0 L55.8 0.0 L17.6 -59.3 L17.2 -59.3 Q17.4 -57.0 17.6 -53.9 Q17.7 -50.7 17.9 -47.2 Q18.0 -43.6 18.0 -39.9 L18.0 -39.9 L18.0 0.0 L9.7 0.0 L9.7 -71.4 L20.1 -71.4 L58.2 -12.3 L58.6 -12.3 Q58.5 -13.9 58.4 -17.1 Q58.2 -20.3 58.1 -24.1 Q57.9 -27.9 57.9 -31.1 L57.9 -31.1 L57.9 -71.4 L66.3 -71.4 Z" fill="#FFFFFF" fill-rule="evenodd" stroke="#111111" stroke-width="4.5" stroke-linejoin="round" stroke-linecap="round" paint-order="stroke fill markers"/></g>
  <g transform="translate(462.12 400.75) scale(1.25170)"><path d="M72.0 -35.8 L72.0 -35.8 Q72.0 -27.5 69.9 -20.8 Q67.8 -14.0 63.7 -9.1 Q59.5 -4.2 53.4 -1.6 Q47.2 1.0 39.1 1.0 L39.1 1.0 Q30.7 1.0 24.5 -1.7 Q18.3 -4.3 14.2 -9.2 Q10.1 -14.0 8.1 -20.8 Q6.1 -27.6 6.1 -35.9 L6.1 -35.9 Q6.1 -46.9 9.7 -55.1 Q13.3 -63.3 20.7 -67.9 Q28.0 -72.5 39.2 -72.5 L39.2 -72.5 Q49.9 -72.5 57.2 -68.0 Q64.5 -63.4 68.3 -55.2 Q72.0 -46.9 72.0 -35.8 Z M15.6 -35.8 L15.6 -35.8 Q15.6 -26.8 18.1 -20.3 Q20.6 -13.8 25.9 -10.3 Q31.1 -6.8 39.1 -6.8 L39.1 -6.8 Q47.2 -6.8 52.4 -10.3 Q57.5 -13.8 60.0 -20.3 Q62.5 -26.8 62.5 -35.8 L62.5 -35.8 Q62.5 -49.3 56.9 -57.0 Q51.3 -64.6 39.2 -64.6 L39.2 -64.6 Q31.1 -64.6 25.9 -61.2 Q20.6 -57.7 18.1 -51.3 Q15.6 -44.8 15.6 -35.8 Z" fill="#FFFFFF" fill-rule="evenodd" stroke="#111111" stroke-width="4.5" stroke-linejoin="round" stroke-linecap="round" paint-order="stroke fill markers"/></g>
  <g transform="translate(617.86 401.00) scale(1.00218)"><path d="M72.0 -35.8 L72.0 -35.8 Q72.0 -27.5 69.9 -20.8 Q67.8 -14.0 63.7 -9.1 Q59.5 -4.2 53.4 -1.6 Q47.2 1.0 39.1 1.0 L39.1 1.0 Q30.7 1.0 24.5 -1.7 Q18.3 -4.3 14.2 -9.2 Q10.1 -14.0 8.1 -20.8 Q6.1 -27.6 6.1 -35.9 L6.1 -35.9 Q6.1 -46.9 9.7 -55.1 Q13.3 -63.3 20.7 -67.9 Q28.0 -72.5 39.2 -72.5 L39.2 -72.5 Q49.9 -72.5 57.2 -68.0 Q64.5 -63.4 68.3 -55.2 Q72.0 -46.9 72.0 -35.8 Z M15.6 -35.8 L15.6 -35.8 Q15.6 -26.8 18.1 -20.3 Q20.6 -13.8 25.9 -10.3 Q31.1 -6.8 39.1 -6.8 L39.1 -6.8 Q47.2 -6.8 52.4 -10.3 Q57.5 -13.8 60.0 -20.3 Q62.5 -26.8 62.5 -35.8 L62.5 -35.8 Q62.5 -49.3 56.9 -57.0 Q51.3 -64.6 39.2 -64.6 L39.2 -64.6 Q31.1 -64.6 25.9 -61.2 Q20.6 -57.7 18.1 -51.3 Q15.6 -44.8 15.6 -35.8 Z M25.1 -85.9 L25.1 -85.9 Q25.1 -88.5 26.5 -89.7 Q27.9 -90.8 29.8 -90.8 L29.8 -90.8 Q31.7 -90.8 33.1 -89.7 Q34.5 -88.5 34.5 -85.9 L34.5 -85.9 Q34.5 -83.4 33.1 -82.2 Q31.7 -80.9 29.8 -80.9 L29.8 -80.9 Q27.9 -80.9 26.5 -82.2 Q25.1 -83.4 25.1 -85.9 Z M43.9 -85.9 L43.9 -85.9 Q43.9 -88.5 45.3 -89.7 Q46.6 -90.8 48.5 -90.8 L48.5 -90.8 Q50.4 -90.8 51.8 -89.7 Q53.2 -88.5 53.2 -85.9 L53.2 -85.9 Q53.2 -83.4 51.8 -82.2 Q50.4 -80.9 48.5 -80.9 L48.5 -80.9 Q46.6 -80.9 45.3 -82.2 Q43.9 -83.4 43.9 -85.9 Z" fill="#FFFFFF" fill-rule="evenodd" stroke="#111111" stroke-width="4.5" stroke-linejoin="round" stroke-linecap="round" paint-order="stroke fill markers"/></g>
  <g transform="translate(761.06 402.00) scale(1.28852)"><path d="M9.7 -71.4 L28.6 -71.4 Q42.6 -71.4 49.0 -65.9 Q55.4 -60.4 55.4 -50.4 L55.4 -50.4 Q55.4 -46.0 54.0 -42.0 Q52.5 -37.9 49.2 -34.7 Q45.9 -31.5 40.4 -29.7 Q34.9 -27.8 26.9 -27.8 L26.9 -27.8 L18.7 -27.8 L18.7 0.0 L9.7 0.0 L9.7 -71.4 Z M27.8 -63.7 L27.8 -63.7 L18.7 -63.7 L18.7 -35.5 L25.9 -35.5 Q32.7 -35.5 37.2 -37.0 Q41.7 -38.4 43.9 -41.6 Q46.1 -44.8 46.1 -50.0 L46.1 -50.0 Q46.1 -56.9 41.7 -60.3 Q37.3 -63.7 27.8 -63.7 Z" fill="#FFFFFF" fill-rule="evenodd" stroke="#111111" stroke-width="4.5" stroke-linejoin="round" stroke-linecap="round" paint-order="stroke fill markers"/></g>
  <g transform="translate(903.64 402.00) scale(1.28852)"><path d="M9.7 -71.4 L29.4 -71.4 Q38.3 -71.4 44.1 -69.2 Q49.8 -66.9 52.6 -62.4 Q55.4 -57.9 55.4 -51.1 L55.4 -51.1 Q55.4 -45.4 53.3 -41.6 Q51.2 -37.8 48.0 -35.6 Q44.7 -33.3 41.1 -32.0 L41.1 -32.0 L60.7 0.0 L50.2 0.0 L32.9 -29.5 L18.7 -29.5 L18.7 0.0 L9.7 0.0 L9.7 -71.4 Z M28.9 -63.6 L28.9 -63.6 L18.7 -63.6 L18.7 -37.1 L29.4 -37.1 Q38.1 -37.1 42.1 -40.6 Q46.1 -44.0 46.1 -50.7 L46.1 -50.7 Q46.1 -55.4 44.3 -58.2 Q42.4 -61.0 38.6 -62.3 Q34.8 -63.6 28.9 -63.6 Z" fill="#FFFFFF" fill-rule="evenodd" stroke="#111111" stroke-width="4.5" stroke-linejoin="round" stroke-linecap="round" paint-order="stroke fill markers"/></g>
  <g transform="translate(38.34 540.75) scale(1.25341)"><path d="M50.2 -19.1 L50.2 -19.1 Q50.2 -12.7 47.1 -8.3 Q44.0 -3.8 38.3 -1.4 Q32.5 1.0 24.7 1.0 L24.7 1.0 Q20.7 1.0 17.1 0.6 Q13.4 0.2 10.4 -0.6 Q7.4 -1.3 5.1 -2.4 L5.1 -2.4 L5.1 -11.0 Q8.7 -9.4 14.1 -8.1 Q19.4 -6.8 25.1 -6.8 L25.1 -6.8 Q30.4 -6.8 34.0 -8.2 Q37.6 -9.6 39.4 -12.2 Q41.2 -14.8 41.2 -18.3 L41.2 -18.3 Q41.2 -21.8 39.7 -24.2 Q38.2 -26.6 34.6 -28.7 Q30.9 -30.7 24.4 -33.0 L24.4 -33.0 Q19.8 -34.7 16.4 -36.6 Q12.9 -38.6 10.6 -41.1 Q8.3 -43.6 7.2 -46.8 Q6.0 -50.0 6.0 -54.2 L6.0 -54.2 Q6.0 -59.9 8.9 -64.0 Q11.8 -68.0 16.9 -70.2 Q22.1 -72.4 28.8 -72.4 L28.8 -72.4 Q34.7 -72.4 39.6 -71.3 Q44.5 -70.2 48.5 -68.4 L48.5 -68.4 L45.7 -60.7 Q42.0 -62.3 37.6 -63.4 Q33.3 -64.5 28.6 -64.5 L28.6 -64.5 Q24.1 -64.5 21.1 -63.2 Q18.1 -61.9 16.6 -59.6 Q15.1 -57.2 15.1 -54.1 L15.1 -54.1 Q15.1 -50.5 16.6 -48.1 Q18.1 -45.7 21.5 -43.8 Q24.9 -41.9 30.7 -39.7 L30.7 -39.7 Q37.0 -37.4 41.4 -34.8 Q45.7 -32.1 48.0 -28.4 Q50.2 -24.7 50.2 -19.1 Z" fill="#FFFFFF" fill-rule="evenodd" stroke="#111111" stroke-width="4.5" stroke-linejoin="round" stroke-linecap="round" paint-order="stroke fill markers"/></g>
  <g transform="translate(192.61 519.10) scale(0.95436)"><path d="M50.2 -19.1 L50.2 -19.1 Q50.2 -12.7 47.1 -8.3 Q44.0 -3.8 38.3 -1.4 Q32.5 1.0 24.7 1.0 L24.7 1.0 Q20.7 1.0 17.1 0.6 Q13.4 0.2 10.4 -0.6 Q7.4 -1.3 5.1 -2.4 L5.1 -2.4 L5.1 -11.0 Q8.7 -9.4 14.1 -8.1 Q19.4 -6.8 25.1 -6.8 L25.1 -6.8 Q30.4 -6.8 34.0 -8.2 Q37.6 -9.6 39.4 -12.2 Q41.2 -14.8 41.2 -18.3 L41.2 -18.3 Q41.2 -21.8 39.7 -24.2 Q38.2 -26.6 34.6 -28.7 Q30.9 -30.7 24.4 -33.0 L24.4 -33.0 Q19.8 -34.7 16.4 -36.6 Q12.9 -38.6 10.6 -41.1 Q8.3 -43.6 7.2 -46.8 Q6.0 -50.0 6.0 -54.2 L6.0 -54.2 Q6.0 -59.9 8.9 -64.0 Q11.8 -68.0 16.9 -70.2 Q22.1 -72.4 28.8 -72.4 L28.8 -72.4 Q34.7 -72.4 39.6 -71.3 Q44.5 -70.2 48.5 -68.4 L48.5 -68.4 L45.7 -60.7 Q42.0 -62.3 37.6 -63.4 Q33.3 -64.5 28.6 -64.5 L28.6 -64.5 Q24.1 -64.5 21.1 -63.2 Q18.1 -61.9 16.6 -59.6 Q15.1 -57.2 15.1 -54.1 L15.1 -54.1 Q15.1 -50.5 16.6 -48.1 Q18.1 -45.7 21.5 -43.8 Q24.9 -41.9 30.7 -39.7 L30.7 -39.7 Q37.0 -37.4 41.4 -34.8 Q45.7 -32.1 48.0 -28.4 Q50.2 -24.7 50.2 -19.1 Z M35.6 13.9 L35.6 13.9 Q35.6 18.7 31.9 21.4 Q28.2 24.0 20.8 24.0 L20.8 24.0 Q19.3 24.0 17.9 23.9 Q16.6 23.7 15.8 23.5 L15.8 23.5 L15.8 18.0 Q16.7 18.2 18.2 18.4 Q19.7 18.5 21.1 18.5 L21.1 18.5 Q24.7 18.5 26.6 17.6 Q28.5 16.6 28.5 14.1 L28.5 14.1 Q28.5 11.5 25.9 10.3 Q23.2 9.1 19.4 8.6 L19.4 8.6 L23.7 0.0 L29.5 0.0 L26.9 5.3 Q29.3 5.8 31.3 6.9 Q33.3 7.9 34.5 9.6 Q35.6 11.3 35.6 13.9 Z" fill="#FFFFFF" fill-rule="evenodd" stroke="#111111" stroke-width="4.5" stroke-linejoin="round" stroke-linecap="round" paint-order="stroke fill markers"/></g>
  <g transform="translate(329.24 542.00) scale(1.28852)"><path d="M32.3 -63.5 L32.3 0.0 L23.3 0.0 L23.3 -63.5 L1.0 -63.5 L1.0 -71.4 L54.5 -71.4 L54.5 -63.5 L32.3 -63.5 Z" fill="#FFFFFF" fill-rule="evenodd" stroke="#111111" stroke-width="4.5" stroke-linejoin="round" stroke-linecap="round" paint-order="stroke fill markers"/></g>
  <g transform="translate(464.62 540.73) scale(1.27072)"><path d="M64.0 -71.4 L64.0 -25.2 Q64.0 -17.8 61.0 -11.9 Q58.0 -5.9 51.9 -2.5 Q45.7 1.0 36.2 1.0 L36.2 1.0 Q22.9 1.0 16.0 -6.3 Q9.0 -13.5 9.0 -25.4 L9.0 -25.4 L9.0 -71.4 L18.0 -71.4 L18.0 -25.1 Q18.0 -16.4 22.7 -11.6 Q27.3 -6.8 36.7 -6.8 L36.7 -6.8 Q43.2 -6.8 47.3 -9.2 Q51.3 -11.5 53.2 -15.7 Q55.1 -19.8 55.1 -25.2 L55.1 -25.2 L55.1 -71.4 L64.0 -71.4 Z" fill="#FFFFFF" fill-rule="evenodd" stroke="#111111" stroke-width="4.5" stroke-linejoin="round" stroke-linecap="round" paint-order="stroke fill markers"/></g>
  <g transform="translate(620.42 541.00) scale(1.00218)"><path d="M64.0 -71.4 L64.0 -25.2 Q64.0 -17.8 61.0 -11.9 Q58.0 -5.9 51.9 -2.5 Q45.7 1.0 36.2 1.0 L36.2 1.0 Q22.9 1.0 16.0 -6.3 Q9.0 -13.5 9.0 -25.4 L9.0 -25.4 L9.0 -71.4 L18.0 -71.4 L18.0 -25.1 Q18.0 -16.4 22.7 -11.6 Q27.3 -6.8 36.7 -6.8 L36.7 -6.8 Q43.2 -6.8 47.3 -9.2 Q51.3 -11.5 53.2 -15.7 Q55.1 -19.8 55.1 -25.2 L55.1 -25.2 L55.1 -71.4 L64.0 -71.4 Z M22.6 -85.9 L22.6 -85.9 Q22.6 -88.5 24.0 -89.7 Q25.4 -90.8 27.3 -90.8 L27.3 -90.8 Q29.2 -90.8 30.6 -89.7 Q32.0 -88.5 32.0 -85.9 L32.0 -85.9 Q32.0 -83.4 30.6 -82.2 Q29.2 -80.9 27.3 -80.9 L27.3 -80.9 Q25.4 -80.9 24.0 -82.2 Q22.6 -83.4 22.6 -85.9 Z M41.4 -85.9 L41.4 -85.9 Q41.4 -88.5 42.8 -89.7 Q44.1 -90.8 46.0 -90.8 L46.0 -90.8 Q47.9 -90.8 49.3 -89.7 Q50.7 -88.5 50.7 -85.9 L50.7 -85.9 Q50.7 -83.4 49.3 -82.2 Q47.9 -80.9 46.0 -80.9 L46.0 -80.9 Q44.1 -80.9 42.8 -82.2 Q41.4 -83.4 41.4 -85.9 Z" fill="#FFFFFF" fill-rule="evenodd" stroke="#111111" stroke-width="4.5" stroke-linejoin="round" stroke-linecap="round" paint-order="stroke fill markers"/></g>
  <g transform="translate(764.34 542.00) scale(1.28852)"><path d="M50.5 -71.4 L60.0 -71.4 L34.5 0.0 L25.5 0.0 L0.0 -71.4 L9.4 -71.4 L25.5 -25.6 Q26.6 -22.7 27.4 -20.0 Q28.2 -17.3 28.9 -14.9 Q29.5 -12.4 30.0 -10.0 L30.0 -10.0 Q30.5 -12.4 31.2 -14.9 Q31.8 -17.4 32.6 -20.1 Q33.5 -22.8 34.5 -25.8 L34.5 -25.8 L50.5 -71.4 Z" fill="#FFFFFF" fill-rule="evenodd" stroke="#111111" stroke-width="4.5" stroke-linejoin="round" stroke-linecap="round" paint-order="stroke fill markers"/></g>
  <g transform="translate(912.54 542.00) scale(1.28852)"><path d="M9.8 -71.4 L28.3 -36.3 L46.9 -71.4 L56.6 -71.4 L32.8 -27.7 L32.8 0.0 L23.8 0.0 L23.8 -27.3 L0.0 -71.4 L9.8 -71.4 Z" fill="#FFFFFF" fill-rule="evenodd" stroke="#111111" stroke-width="4.5" stroke-linejoin="round" stroke-linecap="round" paint-order="stroke fill markers"/></g>
  <g transform="translate(36.21 682.00) scale(1.28852)"><path d="M53.3 -8.0 L53.3 0.0 L3.8 0.0 L3.8 -6.8 L41.4 -63.4 L5.0 -63.4 L5.0 -71.4 L52.3 -71.4 L52.3 -64.6 L14.7 -8.0 L53.3 -8.0 Z" fill="#FFFFFF" fill-rule="evenodd" stroke="#111111" stroke-width="4.5" stroke-linejoin="round" stroke-linecap="round" paint-order="stroke fill markers"/></g>
</svg>