<svg viewBox="0 0 512 512" xmlns="http://www.w3.org/2000/svg">
  <g transform="translate(68.68 449.00) scale(1.80205)">
    <path d="M29.1 -214.2 L90.3 -214.2 Q130.5 -214.2 151.0 -202.3 Q171.6 -190.5 171.6 -161.1 L171.6 -161.1 Q171.6 -148.5 166.9 -138.8 Q162.3 -129.0 153.2 -122.5 Q144.0 -116.1 130.8 -113.7 L130.8 -113.7 L130.8 -112.2 Q144.3 -110.1 155.3 -104.4 Q166.2 -98.7 172.5 -88.2 Q178.8 -77.7 178.8 -60.9 L178.8 -60.9 Q178.8 -41.4 169.8 -27.8 Q160.8 -14.1 144.2 -7.0 Q127.5 0.0 104.4 0.0 L104.4 0.0 L29.1 0.0 L29.1 -214.2 Z M56.1 -123.0 L95.7 -123.0 Q123.3 -123.0 133.5 -131.8 Q143.7 -140.7 143.7 -158.1 L143.7 -158.1 Q143.7 -175.8 131.3 -183.4 Q118.8 -191.1 91.5 -191.1 L91.5 -191.1 L56.1 -191.1 L56.1 -123.0 Z M97.2 -100.5 L56.1 -100.5 L56.1 -22.8 L99.3 -22.8 Q127.8 -22.8 138.9 -33.9 Q150.0 -45.0 150.0 -63.0 L150.0 -63.0 Q150.0 -74.4 145.0 -82.8 Q140.1 -91.2 128.5 -95.8 Q117.0 -100.5 97.2 -100.5 L97.2 -100.5 Z" fill="#FFFFFF" fill-rule="evenodd" stroke="#111111" stroke-width="10" stroke-linejoin="round" stroke-linecap="round" paint-order="stroke fill markers"/>
  </g>
</svg>