<svg viewBox="0 0 512 512" xmlns="http://www.w3.org/2000/svg">
  <g transform="translate(81.93 443.74) scale(1.75295)">
    <path d="M120.9 -193.5 L120.9 -193.5 Q103.8 -193.5 90.0 -187.7 Q76.2 -181.8 66.6 -170.5 Q57.0 -159.3 51.9 -143.3 Q46.8 -127.2 46.8 -107.1 L46.8 -107.1 Q46.8 -80.7 55.0 -61.2 Q63.3 -41.7 79.6 -31.2 Q96.0 -20.7 120.6 -20.7 L120.6 -20.7 Q134.7 -20.7 147.3 -23.1 Q159.9 -25.5 171.9 -29.1 L171.9 -29.1 L171.9 -5.7 Q159.9 -1.2 147.2 0.9 Q134.4 3.0 116.7 3.0 L116.7 3.0 Q84.0 3.0 62.1 -10.5 Q40.2 -24.0 29.3 -48.9 Q18.3 -73.8 18.3 -107.4 L18.3 -107.4 Q18.3 -131.7 25.1 -151.8 Q31.8 -171.9 44.9 -186.6 Q57.9 -201.3 77.1 -209.3 Q96.3 -217.2 121.2 -217.2 L121.2 -217.2 Q137.7 -217.2 153.0 -213.9 Q168.3 -210.6 180.3 -204.6 L180.3 -204.6 L169.5 -181.8 Q159.6 -186.3 147.4 -189.9 Q135.3 -193.5 120.9 -193.5 Z" fill="#FFFFFF" fill-rule="evenodd" stroke="#111111" stroke-width="10" stroke-linejoin="round" stroke-linecap="round" paint-order="stroke fill markers"/>
  </g>
</svg>