<svg viewBox="0 0 512 512" xmlns="http://www.w3.org/2000/svg">
  <g transform="translate(48.94 449.00) scale(1.80205)">
    <path d="M200.7 -109.2 L200.7 -109.2 Q200.7 -73.2 187.3 -48.9 Q174.0 -24.6 149.1 -12.3 Q124.2 0.0 88.8 0.0 L88.8 0.0 L29.1 0.0 L29.1 -214.2 L95.1 -214.2 Q127.5 -214.2 151.2 -202.2 Q174.9 -190.2 187.8 -166.9 Q200.7 -143.7 200.7 -109.2 Z M172.2 -108.3 L172.2 -108.3 Q172.2 -136.8 162.8 -155.1 Q153.3 -173.4 135.2 -182.3 Q117.0 -191.1 91.2 -191.1 L91.2 -191.1 L56.1 -191.1 L56.1 -23.1 L85.2 -23.1 Q128.7 -23.1 150.4 -44.5 Q172.2 -66.0 172.2 -108.3 Z" fill="#FFFFFF" fill-rule="evenodd" stroke="#111111" stroke-width="10" stroke-linejoin="round" stroke-linecap="round" paint-order="stroke fill markers"/>
  </g>
</svg>