<svg viewBox="0 0 512 512" xmlns="http://www.w3.org/2000/svg">
  <g transform="translate(107.30 444.84) scale(1.38649)">
    <path d="M122.1 -89.1 L122.1 -113.1 L196.2 -113.1 L196.2 -8.1 Q178.8 -2.4 161.1 0.3 Q143.4 3.0 120.9 3.0 L120.9 3.0 Q87.6 3.0 64.8 -10.3 Q42.0 -23.7 30.1 -48.4 Q18.3 -73.2 18.3 -107.1 L18.3 -107.1 Q18.3 -140.7 31.5 -165.3 Q44.7 -189.9 69.5 -203.5 Q94.2 -217.2 129.3 -217.2 L129.3 -217.2 Q147.3 -217.2 163.3 -213.9 Q179.4 -210.6 193.2 -204.6 L193.2 -204.6 L183.0 -181.2 Q171.6 -186.3 157.3 -189.9 Q143.1 -193.5 127.8 -193.5 L127.8 -193.5 Q102.3 -193.5 84.0 -183.0 Q65.7 -172.5 56.1 -153.2 Q46.5 -133.8 46.5 -107.1 L46.5 -107.1 Q46.5 -81.6 54.8 -61.9 Q63.0 -42.3 80.7 -31.3 Q98.4 -20.4 127.2 -20.4 L127.2 -20.4 Q141.3 -20.4 151.2 -21.9 Q161.1 -23.4 169.2 -25.5 L169.2 -25.5 L169.2 -89.1 L122.1 -89.1 Z M151.5 -275.4 L168.0 -275.4 Q167.1 -263.4 161.3 -254.4 Q155.4 -245.4 145.2 -240.3 Q135.0 -235.2 120.6 -235.2 L120.6 -235.2 Q98.4 -235.2 87.1 -246.1 Q75.9 -257.1 74.7 -275.4 L74.7 -275.4 L90.9 -275.4 Q91.8 -267.3 95.5 -263.3 Q99.3 -259.2 105.8 -257.8 Q112.2 -256.5 121.2 -256.5 L121.2 -256.5 Q129.0 -256.5 135.4 -258.0 Q141.9 -259.5 146.3 -263.6 Q150.6 -267.6 151.5 -275.4 L151.5 -275.4 Z" fill="#FFFFFF" fill-rule="evenodd" stroke="#111111" stroke-width="10" stroke-linejoin="round" stroke-linecap="round" paint-order="stroke fill markers"/>
  </g>
</svg>