<svg viewBox="0 0 512 512" xmlns="http://www.w3.org/2000/svg">
  <g transform="translate(184.71 449.00) scale(1.40619)">
    <path d="M89.4 -15.6 L89.4 0.0 L12.0 0.0 L12.0 -15.6 L37.2 -21.3 L37.2 -192.6 L12.0 -198.6 L12.0 -214.2 L89.4 -214.2 L89.4 -198.6 L64.2 -192.6 L64.2 -21.3 L89.4 -15.6 Z M51.3 -274.5 L51.3 -274.5 Q57.3 -274.5 61.9 -270.4 Q66.6 -266.4 66.6 -257.7 L66.6 -257.7 Q66.6 -249.3 61.9 -245.1 Q57.3 -240.9 51.3 -240.9 L51.3 -240.9 Q44.7 -240.9 40.2 -245.1 Q35.7 -249.3 35.7 -257.7 L35.7 -257.7 Q35.7 -266.4 40.2 -270.4 Q44.7 -274.5 51.3 -274.5 Z" fill="#FFFFFF" fill-rule="evenodd" stroke="#111111" stroke-width="10" stroke-linejoin="round" stroke-linecap="round" paint-order="stroke fill markers"/>
  </g>
</svg>