<svg viewBox="0 0 512 512" xmlns="http://www.w3.org/2000/svg">
  <g transform="translate(233.80 367.87) scale(1.42330)">
    <path d="M-1.2 57.0 L-1.2 57.0 Q-8.4 57.0 -13.8 55.9 Q-19.2 54.9 -23.4 53.1 L-23.4 53.1 L-23.4 30.3 Q-18.6 31.5 -13.2 32.4 Q-7.8 33.3 -1.8 33.3 L-1.8 33.3 Q5.7 33.3 12.4 30.3 Q19.2 27.3 23.4 19.8 Q27.6 12.3 27.6 -1.2 L27.6 -1.2 L27.6 -214.2 L54.6 -214.2 L54.6 -3.3 Q54.6 17.4 47.7 30.8 Q40.8 44.1 28.2 50.5 Q15.6 57.0 -1.2 57.0 Z" fill="#FFFFFF" fill-rule="evenodd" stroke="#111111" stroke-width="10" stroke-linejoin="round" stroke-linecap="round" paint-order="stroke fill markers"/>
  </g>
</svg>