<svg viewBox="0 0 512 512" xmlns="http://www.w3.org/2000/svg">
  <g transform="translate(10.83 449.00) scale(1.80205)">
    <path d="M145.8 0.0 L123.6 0.0 L53.1 -187.8 L51.9 -187.8 Q52.5 -181.8 52.9 -172.5 Q53.4 -163.2 53.7 -152.3 Q54.0 -141.3 54.0 -129.9 L54.0 -129.9 L54.0 0.0 L29.1 0.0 L29.1 -214.2 L69.0 -214.2 L135.0 -38.7 L136.2 -38.7 L203.4 -214.2 L243.0 -214.2 L243.0 0.0 L216.3 0.0 L216.3 -131.7 Q216.3 -142.2 216.6 -152.5 Q216.9 -162.9 217.5 -172.0 Q218.1 -181.2 218.4 -187.5 L218.4 -187.5 L217.2 -187.5 L145.8 0.0 Z" fill="#FFFFFF" fill-rule="evenodd" stroke="#111111" stroke-width="10" stroke-linejoin="round" stroke-linecap="round" paint-order="stroke fill markers"/>
  </g>
</svg>