<svg viewBox="0 0 512 512" xmlns="http://www.w3.org/2000/svg">
  <g transform="translate(50.92 443.75) scale(1.75057)">
    <path d="M216.0 -107.4 L216.0 -107.4 Q216.0 -82.5 209.7 -62.3 Q203.4 -42.0 190.9 -27.3 Q178.5 -12.6 160.0 -4.8 Q141.6 3.0 117.3 3.0 L117.3 3.0 Q92.1 3.0 73.5 -5.0 Q54.9 -12.9 42.6 -27.4 Q30.3 -42.0 24.3 -62.4 Q18.3 -82.8 18.3 -107.7 L18.3 -107.7 Q18.3 -140.7 29.1 -165.3 Q39.9 -189.9 61.9 -203.7 Q84.0 -217.5 117.6 -217.5 L117.6 -217.5 Q149.7 -217.5 171.6 -203.8 Q193.5 -190.2 204.8 -165.4 Q216.0 -140.7 216.0 -107.4 Z M46.8 -107.4 L46.8 -107.4 Q46.8 -80.4 54.3 -60.9 Q61.8 -41.4 77.5 -30.9 Q93.3 -20.4 117.3 -20.4 L117.3 -20.4 Q141.6 -20.4 157.0 -30.9 Q172.5 -41.4 180.0 -60.9 Q187.5 -80.4 187.5 -107.4 L187.5 -107.4 Q187.5 -147.9 170.7 -170.8 Q153.9 -193.8 117.6 -193.8 L117.6 -193.8 Q93.3 -193.8 77.5 -183.4 Q61.8 -173.1 54.3 -153.8 Q46.8 -134.4 46.8 -107.4 Z" fill="#FFFFFF" fill-rule="evenodd" stroke="#111111" stroke-width="10" stroke-linejoin="round" stroke-linecap="round" paint-order="stroke fill markers"/>
  </g>
</svg>