<svg viewBox="0 0 512 512" xmlns="http://www.w3.org/2000/svg">
  <g transform="translate(91.80 444.80) scale(1.40160)">
    <path d="M216.0 -107.4 L216.0 -107.4 Q216.0 -82.5 209.7 -62.3 Q203.4 -42.0 190.9 -27.3 Q178.5 -12.6 160.0 -4.8 Q141.6 3.0 117.3 3.0 L117.3 3.0 Q92.1 3.0 73.5 -5.0 Q54.9 -12.9 42.6 -27.4 Q30.3 -42.0 24.3 -62.4 Q18.3 -82.8 18.3 -107.7 L18.3 -107.7 Q18.3 -140.7 29.1 -165.3 Q39.9 -189.9 61.9 -203.7 Q84.0 -217.5 117.6 -217.5 L117.6 -217.5 Q149.7 -217.5 171.6 -203.8 Q193.5 -190.2 204.8 -165.4 Q216.0 -140.7 216.0 -107.4 Z M46.8 -107.4 L46.8 -107.4 Q46.8 -80.4 54.3 -60.9 Q61.8 -41.4 77.5 -30.9 Q93.3 -20.4 117.3 -20.4 L117.3 -20.4 Q141.6 -20.4 157.0 -30.9 Q172.5 -41.4 180.0 -60.9 Q187.5 -80.4 187.5 -107.4 L187.5 -107.4 Q187.5 -147.9 170.7 -170.8 Q153.9 -193.8 117.6 -193.8 L117.6 -193.8 Q93.3 -193.8 77.5 -183.4 Q61.8 -173.1 54.3 -153.8 Q46.8 -134.4 46.8 -107.4 Z M75.3 -257.7 L75.3 -257.7 Q75.3 -265.5 79.5 -268.9 Q83.7 -272.4 89.4 -272.4 L89.4 -272.4 Q95.1 -272.4 99.3 -268.9 Q103.5 -265.5 103.5 -257.7 L103.5 -257.7 Q103.5 -250.2 99.3 -246.4 Q95.1 -242.7 89.4 -242.7 L89.4 -242.7 Q83.7 -242.7 79.5 -246.4 Q75.3 -250.2 75.3 -257.7 Z M131.7 -257.7 L131.7 -257.7 Q131.7 -265.5 135.8 -268.9 Q139.8 -272.4 145.5 -272.4 L145.5 -272.4 Q151.2 -272.4 155.4 -268.9 Q159.6 -265.5 159.6 -257.7 L159.6 -257.7 Q159.6 -250.2 155.4 -246.4 Q151.2 -242.7 145.5 -242.7 L145.5 -242.7 Q139.8 -242.7 135.8 -246.4 Q131.7 -250.2 131.7 -257.7 Z" fill="#FFFFFF" fill-rule="evenodd" stroke="#111111" stroke-width="10" stroke-linejoin="round" stroke-linecap="round" paint-order="stroke fill markers"/>
  </g>
</svg>