<svg viewBox="0 0 512 512" xmlns="http://www.w3.org/2000/svg">
  <g transform="translate(80.03 449.00) scale(1.80205)">
    <path d="M29.1 -214.2 L85.8 -214.2 Q127.8 -214.2 147.0 -197.7 Q166.2 -181.2 166.2 -151.2 L166.2 -151.2 Q166.2 -138.0 161.8 -125.8 Q157.5 -113.7 147.6 -104.1 Q137.7 -94.5 121.2 -89.0 Q104.7 -83.4 80.7 -83.4 L80.7 -83.4 L56.1 -83.4 L56.1 0.0 L29.1 0.0 L29.1 -214.2 Z M83.4 -191.1 L83.4 -191.1 L56.1 -191.1 L56.1 -106.5 L77.7 -106.5 Q98.1 -106.5 111.6 -110.8 Q125.1 -115.2 131.7 -124.8 Q138.3 -134.4 138.3 -150.0 L138.3 -150.0 Q138.3 -170.7 125.1 -180.9 Q111.9 -191.1 83.4 -191.1 Z" fill="#FFFFFF" fill-rule="evenodd" stroke="#111111" stroke-width="10" stroke-linejoin="round" stroke-linecap="round" paint-order="stroke fill markers"/>
  </g>
</svg>