<svg viewBox="0 0 512 512" xmlns="http://www.w3.org/2000/svg">
  <g transform="translate(65.70 449.00) scale(1.80205)">
    <path d="M29.1 -214.2 L88.2 -214.2 Q114.9 -214.2 132.2 -207.4 Q149.4 -200.7 157.8 -187.2 Q166.2 -173.7 166.2 -153.3 L166.2 -153.3 Q166.2 -136.2 159.9 -124.8 Q153.6 -113.4 143.8 -106.6 Q134.1 -99.9 123.3 -96.0 L123.3 -96.0 L182.1 0.0 L150.6 0.0 L98.7 -88.5 L56.1 -88.5 L56.1 0.0 L29.1 0.0 L29.1 -214.2 Z M86.7 -190.8 L86.7 -190.8 L56.1 -190.8 L56.1 -111.3 L88.2 -111.3 Q114.3 -111.3 126.3 -121.6 Q138.3 -132.0 138.3 -152.1 L138.3 -152.1 Q138.3 -166.2 132.8 -174.6 Q127.2 -183.0 115.8 -186.9 Q104.4 -190.8 86.7 -190.8 Z" fill="#FFFFFF" fill-rule="evenodd" stroke="#111111" stroke-width="10" stroke-linejoin="round" stroke-linecap="round" paint-order="stroke fill markers"/>
  </g>
</svg>