<svg viewBox="0 0 512 512" xmlns="http://www.w3.org/2000/svg">
  <g transform="translate(145.29 352.90) scale(1.33472)">
    <path d="M150.6 -57.3 L150.6 -57.3 Q150.6 -38.1 141.3 -24.8 Q132.0 -11.4 114.8 -4.2 Q97.5 3.0 74.1 3.0 L74.1 3.0 Q62.1 3.0 51.1 1.8 Q40.2 0.6 31.2 -1.6 Q22.2 -3.9 15.3 -7.2 L15.3 -7.2 L15.3 -33.0 Q26.1 -28.2 42.1 -24.3 Q58.2 -20.4 75.3 -20.4 L75.3 -20.4 Q91.2 -20.4 102.0 -24.6 Q112.8 -28.8 118.2 -36.6 Q123.6 -44.4 123.6 -54.9 L123.6 -54.9 Q123.6 -65.4 119.1 -72.6 Q114.6 -79.8 103.6 -86.0 Q92.7 -92.1 73.2 -99.0 L73.2 -99.0 Q59.4 -104.1 49.0 -110.0 Q38.7 -115.8 31.8 -123.3 Q24.9 -130.8 21.4 -140.4 Q18.0 -150.0 18.0 -162.6 L18.0 -162.6 Q18.0 -179.7 26.7 -191.8 Q35.4 -204.0 50.9 -210.6 Q66.3 -217.2 86.4 -217.2 L86.4 -217.2 Q104.1 -217.2 118.8 -213.9 Q133.5 -210.6 145.5 -205.2 L145.5 -205.2 L137.1 -182.1 Q126.0 -186.9 113.0 -190.2 Q99.9 -193.5 85.8 -193.5 L85.8 -193.5 Q72.3 -193.5 63.3 -189.6 Q54.3 -185.7 49.8 -178.7 Q45.3 -171.6 45.3 -162.3 L45.3 -162.3 Q45.3 -151.5 49.8 -144.3 Q54.3 -137.1 64.5 -131.4 Q74.7 -125.7 92.1 -119.1 L92.1 -119.1 Q111.0 -112.2 124.0 -104.3 Q137.1 -96.3 143.8 -85.2 Q150.6 -74.1 150.6 -57.3 Z M106.8 41.7 L106.8 41.7 Q106.8 56.1 95.7 64.0 Q84.6 72.0 62.4 72.0 L62.4 72.0 Q57.9 72.0 53.9 71.5 Q49.8 71.1 47.4 70.5 L47.4 70.5 L47.4 54.0 Q50.1 54.6 54.6 55.0 Q59.1 55.5 63.3 55.5 L63.3 55.5 Q74.1 55.5 79.8 52.6 Q85.5 49.8 85.5 42.3 L85.5 42.3 Q85.5 34.5 77.5 30.9 Q69.6 27.3 58.2 25.8 L58.2 25.8 L71.1 0.0 L88.5 0.0 L80.7 15.9 Q87.9 17.4 93.9 20.6 Q99.9 23.7 103.3 28.8 Q106.8 33.9 106.8 41.7 Z" fill="#FFFFFF" fill-rule="evenodd" stroke="#111111" stroke-width="10" stroke-linejoin="round" stroke-linecap="round" paint-order="stroke fill markers"/>
  </g>
</svg>