<svg viewBox="0 0 512 512" xmlns="http://www.w3.org/2000/svg">
  <g transform="translate(61.40 443.67) scale(1.77716)">
    <path d="M192.0 -214.2 L192.0 -75.6 Q192.0 -53.4 183.0 -35.5 Q174.0 -17.7 155.5 -7.3 Q137.1 3.0 108.6 3.0 L108.6 3.0 Q68.7 3.0 47.9 -18.8 Q27.0 -40.5 27.0 -76.2 L27.0 -76.2 L27.0 -214.2 L54.0 -214.2 L54.0 -75.3 Q54.0 -49.2 68.0 -34.8 Q81.9 -20.4 110.1 -20.4 L110.1 -20.4 Q129.6 -20.4 141.8 -27.4 Q153.9 -34.5 159.6 -46.9 Q165.3 -59.4 165.3 -75.6 L165.3 -75.6 L165.3 -214.2 L192.0 -214.2 Z" fill="#FFFFFF" fill-rule="evenodd" stroke="#111111" stroke-width="10" stroke-linejoin="round" stroke-linecap="round" paint-order="stroke fill markers"/>
  </g>
</svg>