<svg viewBox="0 0 512 512" xmlns="http://www.w3.org/2000/svg">
  <g transform="translate(102.53 444.80) scale(1.40160)">
    <path d="M192.0 -214.2 L192.0 -75.6 Q192.0 -53.4 183.0 -35.5 Q174.0 -17.7 155.5 -7.3 Q137.1 3.0 108.6 3.0 L108.6 3.0 Q68.7 3.0 47.9 -18.8 Q27.0 -40.5 27.0 -76.2 L27.0 -76.2 L27.0 -214.2 L54.0 -214.2 L54.0 -75.3 Q54.0 -49.2 68.0 -34.8 Q81.9 -20.4 110.1 -20.4 L110.1 -20.4 Q129.6 -20.4 141.8 -27.4 Q153.9 -34.5 159.6 -46.9 Q165.3 -59.4 165.3 -75.6 L165.3 -75.6 L165.3 -214.2 L192.0 -214.2 Z M67.8 -257.7 L67.8 -257.7 Q67.8 -265.5 72.0 -268.9 Q76.2 -272.4 81.9 -272.4 L81.9 -272.4 Q87.6 -272.4 91.8 -268.9 Q96.0 -265.5 96.0 -257.7 L96.0 -257.7 Q96.0 -250.2 91.8 -246.4 Q87.6 -242.7 81.9 -242.7 L81.9 -242.7 Q76.2 -242.7 72.0 -246.4 Q67.8 -250.2 67.8 -257.7 Z M124.2 -257.7 L124.2 -257.7 Q124.2 -265.5 128.3 -268.9 Q132.3 -272.4 138.0 -272.4 L138.0 -272.4 Q143.7 -272.4 147.9 -268.9 Q152.1 -265.5 152.1 -257.7 L152.1 -257.7 Q152.1 -250.2 147.9 -246.4 Q143.7 -242.7 138.0 -242.7 L138.0 -242.7 Q132.3 -242.7 128.3 -246.4 Q124.2 -250.2 124.2 -257.7 Z" fill="#FFFFFF" fill-rule="evenodd" stroke="#111111" stroke-width="10" stroke-linejoin="round" stroke-linecap="round" paint-order="stroke fill markers"/>
  </g>
</svg>